<svg width="16" height="16" viewBox="0 0 16 16" fill="#000" xmlns="http://www.w3.org/2000/svg">
	<title>user</title>
	<g>
		<path d="M8.46,8.38a4.19,4.19,0,1,1,4.19-4.19A4.19,4.19,0,0,1,8.46,8.38ZM8.46,1a3.19,3.19,0,1,0,3.19,3.19A3.19,3.19,0,0,0,8.46,1Z"/>
		<rect x="0.5" y="14.84" width="15" height="1"/>
		<path d="M16,15.84H15c0-3.2-4-5.26-6.8-5.34a8.3,8.3,0,0,0-5.75,2.28A4.38,4.38,0,0,0,1,15.84H0a5.28,5.28,0,0,1,1.76-3.78A9.58,9.58,0,0,1,8.23,9.5C11.9,9.6,16,12.23,16,15.84Z"/>
	</g>
</svg>